<svg xmlns="http://www.w3.org/2000/svg" viewBox="0 0 920 240" role="img" aria-label="puriKRON">
  <defs>
    <linearGradient id="ring" x1="0%" y1="0%" x2="0%" y2="100%">
      <stop offset="0%" stop-color="#82D91E"/>
      <stop offset="55%" stop-color="#14B8A6"/>
      <stop offset="100%" stop-color="#1E3A8A"/>
    </linearGradient>
    <radialGradient id="inner" cx="50%" cy="42%" r="62%">
      <stop offset="0%" stop-color="#0F766E"/>
      <stop offset="100%" stop-color="#172554"/>
    </radialGradient>
    <linearGradient id="puri" x1="0%" y1="0%" x2="100%" y2="0%">
      <stop offset="0%" stop-color="#38BDF8"/>
      <stop offset="100%" stop-color="#0D9488"/>
    </linearGradient>
    <linearGradient id="leaf" x1="0%" y1="0%" x2="100%" y2="100%">
      <stop offset="0%" stop-color="#A3E635"/>
      <stop offset="100%" stop-color="#16A34A"/>
    </linearGradient>
  </defs>
  <g transform="translate(8 8) scale(0.43)">
    <circle cx="256" cy="256" r="248" fill="url(#ring)"/>
    <circle cx="256" cy="256" r="214" fill="url(#inner)"/>
    <circle cx="256" cy="256" r="214" fill="none" stroke="rgba(255,255,255,.12)" stroke-width="4"/>
    <path d="M188 132 L188 380 L214 380 L214 248 L286 380 L318 380 L236 236 L318 132 L286 132 L214 248 L214 132 Z" fill="#D9F99D"/>
    <path d="M214 248 L286 380 L318 380 L236 236 Z" fill="#22D3EE"/>
    <path d="M214 248 L286 132 L318 132 L236 236 Z" fill="#5EEAD4"/>
    <path d="M292 318 C318 300 334 322 322 346 C308 372 276 364 268 338 C262 318 276 308 292 318 Z" fill="url(#leaf)"/>
    <path d="M292 318 C300 328 304 338 300 348" fill="none" stroke="#14532D" stroke-width="4" stroke-linecap="round"/>
    <g fill="#FFFFFF" opacity=".9">
      <path d="M330 170 L334 178 L342 180 L334 182 L330 190 L326 182 L318 180 L326 178 Z"/>
      <path d="M352 210 L355 216 L361 217 L355 219 L352 225 L349 219 L343 217 L349 216 Z"/>
      <path d="M338 248 L341 253 L346 254 L341 256 L338 261 L335 256 L330 254 L335 253 Z"/>
    </g>
  </g>
  <text x="250" y="156" font-family="Inter, ui-sans-serif, system-ui, sans-serif" font-size="118" font-weight="700" letter-spacing="-2">
    <tspan fill="url(#puri)">puri</tspan><tspan fill="#1F2937">KRON</tspan>
  </text>
</svg>
